<?xml version="1.0" encoding="utf-8"?>
<!-- Generator: Adobe Illustrator 16.0.0, SVG Export Plug-In . SVG Version: 6.00 Build 0)  -->
<!DOCTYPE svg PUBLIC "-//W3C//DTD SVG 1.1 Tiny//EN" "http://www.w3.org/Graphics/SVG/1.1/DTD/svg11-tiny.dtd">
<svg version="1.1" baseProfile="tiny" id="Layer_1" xmlns="http://www.w3.org/2000/svg" xmlns:xlink="http://www.w3.org/1999/xlink"
	 x="0px" y="0px" width="24px" height="24px" viewBox="0 0 24 24" xml:space="preserve">
<g>
	<path d="M7.035,15.522c-0.293,0-0.592-0.016-0.895-0.048c-3.261-0.345-5.723-2.512-5.488-4.831
		c0.016-0.153,0.117-0.283,0.261-0.336c0.145-0.051,0.306-0.018,0.416,0.089c0.829,0.803,1.557,1.177,2.292,1.177
		c0.941,0,1.993-0.58,3.632-2.003c0.835-0.725,1.675-1.093,2.496-1.093c0.919,0,1.746,0.499,2.25,1.305
		c0.504-0.806,1.331-1.305,2.25-1.305c0.82,0,1.66,0.366,2.495,1.089c1.639,1.42,2.691,1.998,3.631,1.998
		c0.737,0,1.465-0.375,2.293-1.18c0.111-0.105,0.272-0.142,0.415-0.089c0.145,0.053,0.246,0.183,0.262,0.335
		c0.24,2.318-2.217,4.489-5.478,4.839c-0.306,0.033-0.608,0.049-0.905,0.049h0c-2.199,0-4.096-0.89-4.962-2.248
		C11.136,14.631,9.237,15.522,7.035,15.522z M1.53,11.616c0.433,1.521,2.324,2.813,4.695,3.063c2.632,0.278,4.922-0.82,5.391-2.478
		c0.048-0.173,0.206-0.292,0.385-0.292l0,0c0.179,0,0.336,0.119,0.385,0.291c0.421,1.482,2.303,2.518,4.578,2.518h0
		c0.269,0,0.542-0.015,0.819-0.044c2.371-0.255,4.258-1.548,4.688-3.07c-0.705,0.516-1.385,0.76-2.094,0.76
		c-1.152,0-2.356-0.635-4.155-2.192c-0.676-0.585-1.358-0.895-1.972-0.895c-1.058,0-1.666,0.866-1.864,1.607
		C12.34,11.06,12.181,11.182,12,11.182l0,0c-0.181,0-0.339-0.122-0.386-0.297c-0.199-0.741-0.807-1.606-1.865-1.606
		c-0.614,0-1.296,0.31-1.972,0.896c-1.799,1.563-3.003,2.199-4.156,2.199C2.914,12.374,2.235,12.13,1.53,11.616z"/>
</g>
</svg>
